<svg width="210" height="44" viewBox="0 0 210 44" fill="none" xmlns="http://www.w3.org/2000/svg">
<path d="M16.4183 30.955C8.54763 30.955 3.31519 26.0743 3.31519 18.2036V0H14.6595C14.6595 4.04525 15.2751 28.0969 18.265 28.0969C19.3643 27.921 20.4635 23.9637 20.4635 16.6207C20.4635 11.74 19.848 5.84803 18.1771 0H29.5214V18.2036C29.5214 26.0743 24.2889 30.955 16.4183 30.955Z" fill="white"/>
<path d="M44.8443 30.955H33.5V0H50.8242C57.5077 0 60.8934 5.40833 60.8934 10.7287C60.8934 15.9172 57.6836 21.0177 51.3079 21.0177H44.8443V30.955ZM48.23 16.3569C49.9888 16.3569 50.8242 15.0818 50.8242 13.7627C50.8242 12.3996 49.9448 11.0365 48.23 11.0365H44.8443V16.3569H48.23Z" fill="white"/>
<path d="M76.2325 30.999C72.539 30.999 68.4937 30.3394 64.8442 29.46V18.2916C68.9774 21.7213 73.5942 23.1283 78.0792 23.1283C80.4096 23.1283 82.6961 22.7765 84.8946 22.073C81.377 22.073 64.8442 18.2916 64.8442 9.76137C64.8442 2.90203 70.8241 0 78.0792 0C81.5968 0 85.3783 0.659554 88.9398 1.89072V13.0152C85.6421 9.84931 78.5629 8.00257 75.2211 8.00257C74.7375 8.00257 74.3417 8.04654 74.034 8.13448C76.5842 9.01388 88.9398 15.5654 88.9398 22.117C88.9398 28.8004 83.1797 30.999 76.2325 30.999Z" fill="white"/>
<path d="M112.053 30.955H100.709V11.3443H92.882V0H119.836V11.3443C113.46 7.91463 106.557 7.0792 99.8293 6.41964C105.897 8.04654 112.053 9.89328 112.053 17.0604V30.955Z" fill="white"/>
<path d="M137.854 18.6433C137.238 13.5428 136.534 11.0365 133.984 11.0365L133.369 18.6433H137.854ZM150.957 30.955H139.349L138.469 23.3482H132.973L132.357 30.955H120.705L125.806 0H132.093C145.768 0.0439696 145.768 2.19851 150.957 30.955Z" fill="white"/>
<path d="M163.664 30.955C158.344 30.955 153.595 28.8884 153.595 22.2049L153.639 21.4574C153.639 12.5755 153.595 16.8406 153.595 8.35433C153.595 3.78143 157.377 0 162.037 0H172.151V7.78272H163.313C163.313 15.7853 167.006 20.9738 171.491 20.9738C172.458 20.9738 173.514 20.7099 174.525 20.1823V28.5806C171.667 29.8557 167.49 30.955 163.664 30.955Z" fill="white"/>
<path d="M208.354 30.955C200.791 30.955 193.712 27.8771 189.843 21.1936V30.955H178.498V0H189.843V11.3003L198.593 0H207.343V6.55155C207.343 13.4549 195.559 16.3569 189.931 16.3569C191.47 17.0164 196.394 19.8305 201.143 19.8305C203.825 19.8305 206.419 18.9072 208.354 16.225V30.955Z" fill="white"/>
<path d="M176.391 42.4862C176.391 42.215 176.457 42.0245 176.589 41.9145C176.721 41.8046 176.878 41.7497 177.061 41.7497C177.252 41.7497 177.413 41.8046 177.545 41.9145C177.684 42.0245 177.754 42.215 177.754 42.4862C177.754 42.75 177.684 42.9405 177.545 43.0578C177.413 43.175 177.252 43.2337 177.061 43.2337C176.878 43.2337 176.721 43.175 176.589 43.0578C176.457 42.9405 176.391 42.75 176.391 42.4862Z" fill="white"/>
<path d="M179.992 41.3759C180.116 41.6471 180.318 41.8669 180.596 42.0355C180.875 42.1967 181.252 42.2773 181.729 42.2773C182.124 42.2773 182.428 42.2187 182.641 42.1014C182.853 41.9768 182.96 41.8083 182.96 41.5958C182.96 41.3906 182.868 41.2367 182.685 41.1341C182.502 41.0242 182.271 40.9362 181.992 40.8703C181.721 40.8043 181.424 40.742 181.102 40.6834C180.787 40.6174 180.49 40.5295 180.212 40.4196C179.94 40.3096 179.713 40.1594 179.53 39.9689C179.347 39.7783 179.255 39.5145 179.255 39.1774C179.255 38.9282 179.31 38.7011 179.42 38.4959C179.53 38.2833 179.68 38.1038 179.871 37.9572C180.069 37.8033 180.303 37.6861 180.574 37.6055C180.853 37.5175 181.157 37.4736 181.487 37.4736C182.095 37.4736 182.601 37.6091 183.004 37.8803C183.414 38.1441 183.715 38.4959 183.905 38.9356L182.949 39.2873C182.846 39.0162 182.674 38.8 182.432 38.6388C182.19 38.4702 181.875 38.3859 181.487 38.3859C181.135 38.3859 180.849 38.4556 180.629 38.5948C180.417 38.7267 180.311 38.8989 180.311 39.1115C180.311 39.3093 180.402 39.4595 180.585 39.5621C180.769 39.6574 180.996 39.738 181.267 39.804C181.545 39.8699 181.842 39.9322 182.157 39.9909C182.48 40.0495 182.777 40.1374 183.048 40.2547C183.326 40.3646 183.557 40.5185 183.74 40.7164C183.923 40.9069 184.015 41.1707 184.015 41.5078C184.015 41.757 183.956 41.9878 183.839 42.2004C183.729 42.4055 183.572 42.5814 183.366 42.728C183.169 42.8746 182.923 42.9882 182.63 43.0688C182.344 43.1494 182.025 43.1897 181.674 43.1897C181.007 43.1897 180.453 43.0578 180.014 42.7939C179.574 42.5228 179.248 42.1674 179.035 41.7277L179.992 41.3759Z" fill="white"/>
<path d="M185.701 38.4959H184.569V37.5835H185.701V35.8467H186.691V36.0885C186.691 36.4549 186.65 36.7297 186.57 36.9129C186.489 37.0962 186.346 37.2464 186.141 37.3636V37.5835H188.219V38.4959H186.691V41.31C186.691 41.669 186.76 41.9036 186.899 42.0135C187.046 42.1161 187.259 42.1674 187.537 42.1674H188.219V43.0798H187.537C186.951 43.0798 186.496 42.9405 186.174 42.662C185.859 42.3836 185.701 41.9365 185.701 41.3209V38.4959Z" fill="white"/>
<path d="M194.076 43.0798H193.086V41.8816H192.867C192.793 42.0575 192.702 42.226 192.592 42.3872C192.489 42.5485 192.357 42.6877 192.196 42.8049C192.042 42.9222 191.859 43.0138 191.646 43.0798C191.434 43.153 191.188 43.1897 190.91 43.1897C190.631 43.1897 190.375 43.153 190.14 43.0798C189.913 42.9991 189.715 42.8782 189.547 42.717C189.386 42.5485 189.261 42.3396 189.173 42.0904C189.085 41.8413 189.041 41.5481 189.041 41.211V37.5835H190.031V40.7823C190.031 41.3246 190.14 41.7094 190.36 41.9365C190.587 42.1637 190.888 42.2773 191.262 42.2773C191.547 42.2773 191.8 42.2223 192.02 42.1124C192.247 41.9952 192.438 41.8376 192.592 41.6397C192.753 41.4345 192.874 41.1927 192.955 40.9142C193.042 40.6357 193.086 40.3353 193.086 40.0128V37.5835H194.076V43.0798Z" fill="white"/>
<path d="M200.554 43.0798H199.565V42.2223H199.345C199.154 42.5155 198.912 42.75 198.619 42.9259C198.326 43.1017 197.96 43.1897 197.52 43.1897C197.124 43.1897 196.769 43.1164 196.454 42.9698C196.146 42.8159 195.886 42.6107 195.673 42.3543C195.461 42.0978 195.296 41.7973 195.179 41.4529C195.069 41.1011 195.014 40.7274 195.014 40.3316C195.014 39.9359 195.069 39.5658 195.179 39.2214C195.296 38.8696 195.461 38.5655 195.673 38.309C195.886 38.0525 196.146 37.851 196.454 37.7044C196.769 37.5505 197.124 37.4736 197.52 37.4736C197.96 37.4736 198.326 37.5615 198.619 37.7374C198.912 37.9133 199.154 38.1478 199.345 38.4409H199.565V35.385H200.554V43.0798ZM196.069 40.3206C196.069 40.5918 196.102 40.8483 196.168 41.0901C196.234 41.3246 196.336 41.5298 196.476 41.7057C196.615 41.8816 196.794 42.0208 197.014 42.1234C197.241 42.226 197.509 42.2773 197.817 42.2773C198.125 42.2773 198.388 42.2297 198.608 42.1344C198.835 42.0318 199.019 41.9036 199.158 41.7497C199.297 41.5958 199.4 41.4235 199.466 41.233C199.532 41.0425 199.565 40.8556 199.565 40.6724V39.9909C199.565 39.8003 199.532 39.6098 199.466 39.4192C199.4 39.2287 199.297 39.0565 199.158 38.9026C199.019 38.7487 198.835 38.6241 198.608 38.5288C198.388 38.4336 198.125 38.3859 197.817 38.3859C197.509 38.3859 197.241 38.4372 197.014 38.5398C196.794 38.6351 196.615 38.7707 196.476 38.9466C196.336 39.1224 196.234 39.3276 196.168 39.5621C196.102 39.7967 196.069 40.0495 196.069 40.3206Z" fill="white"/>
<path d="M201.657 43.0798V37.5835H202.646V43.0798H201.657ZM201.657 35.385H202.646V36.3743H201.657V35.385Z" fill="white"/>
<path d="M203.58 40.3316C203.58 39.9359 203.638 39.5658 203.756 39.2214C203.88 38.8696 204.06 38.5655 204.294 38.309C204.536 38.0525 204.829 37.851 205.174 37.7044C205.525 37.5505 205.928 37.4736 206.383 37.4736C206.837 37.4736 207.24 37.5505 207.592 37.7044C207.944 37.851 208.237 38.0525 208.471 38.309C208.706 38.5655 208.882 38.8696 208.999 39.2214C209.124 39.5658 209.186 39.9359 209.186 40.3316C209.186 40.7274 209.124 41.1011 208.999 41.4529C208.882 41.7973 208.706 42.0978 208.471 42.3543C208.237 42.6107 207.944 42.8159 207.592 42.9698C207.24 43.1164 206.837 43.1897 206.383 43.1897C205.928 43.1897 205.525 43.1164 205.174 42.9698C204.829 42.8159 204.536 42.6107 204.294 42.3543C204.06 42.0978 203.88 41.7973 203.756 41.4529C203.638 41.1011 203.58 40.7274 203.58 40.3316ZM204.635 40.3206C204.635 40.5918 204.668 40.8483 204.734 41.0901C204.8 41.3246 204.902 41.5298 205.042 41.7057C205.181 41.8816 205.36 42.0208 205.58 42.1234C205.807 42.226 206.075 42.2773 206.383 42.2773C206.691 42.2773 206.954 42.226 207.174 42.1234C207.401 42.0208 207.585 41.8816 207.724 41.7057C207.863 41.5298 207.966 41.3246 208.032 41.0901C208.098 40.8483 208.131 40.5918 208.131 40.3206C208.131 40.0495 208.098 39.7967 208.032 39.5621C207.966 39.3276 207.863 39.1224 207.724 38.9466C207.585 38.7707 207.401 38.6351 207.174 38.5398C206.954 38.4372 206.691 38.3859 206.383 38.3859C206.075 38.3859 205.807 38.4372 205.58 38.5398C205.36 38.6351 205.181 38.7707 205.042 38.9466C204.902 39.1224 204.8 39.3276 204.734 39.5621C204.668 39.7967 204.635 40.0495 204.635 40.3206Z" fill="white"/>
<line x1="0.75" y1="42.5615" x2="174.339" y2="42.5615" stroke="white" stroke-width="1.5" stroke-linecap="round"/>
</svg>
